<svg width="896" height="896" viewBox="0 0 896 896" fill="none" xmlns="http://www.w3.org/2000/svg">
<rect x="44" y="35" width="813" height="813" rx="267" fill="#7BAF8A"/>
<path fill-rule="evenodd" clip-rule="evenodd" d="M295.598 578.564V313.882C281.236 324.141 218.861 327.834 227.889 248.224C227.889 225.655 265.848 176.411 308.935 216.421C300.728 184.619 295.598 134.286 341.764 122.039C355.1 118.5 409.063 119.782 399.214 196.929C400.01 194.254 400.786 191.457 401.58 188.593C408.167 164.854 416.023 136.543 446.543 135.41V135.375C446.864 135.375 447.183 135.378 447.5 135.384C447.817 135.378 448.136 135.375 448.457 135.375V135.41C478.977 136.543 486.833 164.854 493.42 188.593C494.214 191.457 494.99 194.254 495.786 196.929C485.937 119.782 539.9 118.5 553.236 122.039C599.402 134.286 594.272 184.619 586.065 216.421C629.152 176.411 667.111 225.655 667.111 248.224C676.139 327.834 613.764 324.141 599.402 313.882V581.642C599.402 611.393 513.935 593.953 513.935 593.953L447.5 587.885L381.065 593.953C381.065 593.953 294.392 618.574 295.598 578.564Z" fill="white"/>
<path fill-rule="evenodd" clip-rule="evenodd" d="M295.598 578.564V313.882C281.236 324.141 218.861 327.834 227.889 248.224C227.889 225.655 265.848 176.411 308.935 216.421C300.728 184.619 295.598 134.286 341.764 122.039C355.1 118.5 409.063 119.782 399.214 196.929C400.01 194.254 400.786 191.457 401.58 188.593C408.167 164.854 416.023 136.543 446.543 135.41V135.375C446.864 135.375 447.183 135.378 447.5 135.384C447.817 135.378 448.136 135.375 448.457 135.375V135.41C478.977 136.543 486.833 164.854 493.42 188.593C494.214 191.457 494.99 194.254 495.786 196.929C485.937 119.782 539.9 118.5 553.236 122.039C599.402 134.286 594.272 184.619 586.065 216.421C629.152 176.411 667.111 225.655 667.111 248.224C676.139 327.834 613.764 324.141 599.402 313.882V581.642C599.402 611.393 513.935 593.953 513.935 593.953L447.5 587.885L381.065 593.953C381.065 593.953 294.392 618.574 295.598 578.564Z" fill="url(#paint0_linear_12_2)" fill-opacity="0.2"/>
<path fill-rule="evenodd" clip-rule="evenodd" d="M295.418 515.984V473.922C335.815 454.855 391.8 443.875 450.329 444.177C507.674 443.875 560.53 454.855 600.11 473.922V515.984C559.425 496.288 504.72 487.853 450.329 487.828C394.815 487.853 336.943 496.288 295.418 515.984Z" fill="black"/>
<path d="M275.926 724.242C399.854 733.27 427.417 686.284 425.707 661.662C451.355 715.009 435.966 734.501 410.319 746.812C389.801 756.66 312.174 735.869 275.926 724.242Z" fill="black"/>
<path d="M623.55 724.242C499.621 733.27 472.059 686.284 473.768 661.662C448.121 715.009 463.509 734.501 489.157 746.812C509.675 756.66 587.301 735.869 623.55 724.242Z" fill="black"/>
<ellipse cx="447.251" cy="585.745" rx="154.911" ry="41.036" fill="black"/>
<defs>
<linearGradient id="paint0_linear_12_2" x1="995.082" y1="-433.999" x2="447.5" y2="601.448" gradientUnits="userSpaceOnUse">
<stop/>
<stop offset="1" stop-opacity="0"/>
</linearGradient>
</defs>
</svg>
